<?xml version="1.0" encoding="utf-8"?>
<!-- Generator: Adobe Illustrator 22.0.0, SVG Export Plug-In . SVG Version: 6.00 Build 0)  -->
<svg version="1.1" xmlns="http://www.w3.org/2000/svg" xmlns:xlink="http://www.w3.org/1999/xlink" x="0px" y="0px"
	 viewBox="0 0 512 512" style="enable-background:new 0 0 512 512;" xml:space="preserve">
<style type="text/css">
	.st0{fill:#CE8A5C;}
</style>
<g id="Layer_2">
	<rect x="121" y="33" class="st0" width="143" height="69"/>
	<rect x="147" y="21" class="st0" width="97" height="35"/>
	<rect x="111" y="217" class="st0" width="27" height="32"/>
	<rect x="251" y="216" class="st0" width="47" height="36"/>
	<rect x="274" y="64" class="st0" width="31" height="35"/>
	<rect x="298" y="74" class="st0" width="20" height="19"/>
	<rect x="408" y="74" class="st0" width="31" height="17"/>
	<rect x="298" y="251" class="st0" width="142" height="32"/>
	<rect x="323" y="263" class="st0" width="82" height="34"/>
	<rect x="115.2" y="32.7" class="st0" width="152.8" height="204.3"/>
	<rect x="275" y="232" class="st0" width="167" height="34"/>
	<rect x="291" y="254" class="st0" width="16" height="22"/>
	<rect x="254" y="80" class="st0" width="186" height="168"/>
	<rect x="257" y="45" class="st0" width="25" height="47"/>
</g>
<g id="Layer_1">
	<path d="M439.5,61.8c-4.6-2.7-10.3-2.7-14.9,0c-17.9,9.9-38,15.1-58.5,15c-29.9,0.7-58.8-10.7-80.2-31.6
		C261.1,21,227.7,7.8,193.1,8.5c-27.8-0.2-55,8.2-77.8,24.2c0,0-0.1,0-0.1,0v-6.4c0-15.1-12.4-27.3-27.4-26.2
		C74.5,1,64,12.1,64,25.6l0,460.1c0,15.1,12.4,27.3,27.4,26.2c13.3-0.9,23.8-12,23.8-25.5V264.6c0,0,0,0,0,0
		c2.8-0.3,5.5-1.3,7.7-3.1c20.3-15,44.9-22.9,70.1-22.5c29.9-0.7,58.9,10.7,80.4,31.6c24.7,24.2,58,37.4,92.6,36.7
		c26.5,0.3,52.4-7.3,74.6-21.8c4.7-3.3,7.5-8.7,7.3-14.5V76.8C448.1,70.6,444.8,64.9,439.5,61.8z M98.1,486.4c0,4.9-4.1,8.8-9.1,8.5
		c-4.6-0.3-8-4.3-8-8.9V25.9c0-4.6,3.4-8.6,8-8.9c5-0.3,9.1,3.6,9.1,8.5V486.4z M430.9,271.3c-19.3,12.5-41.9,19-64.9,18.9
		c-29.9,0.7-58.8-10.7-80.2-31.6c-24.7-24.2-58.2-37.4-92.8-36.7c-27.8-0.3-55,8.1-77.8,24c0,0-0.1,0-0.1,0v-191c0,0,0,0,0,0
		c21.3-19.3,49.2-29.7,77.9-29.2c29.9-0.7,58.9,10.7,80.4,31.6c24.7,24.2,58,37.4,92.6,36.7c22.6,0.2,44.8-5.3,64.8-15.8
		c0,0,0.1,0,0.1,0L430.9,271.3L430.9,271.3z"/>
	<path d="M107,44c0.3,72.3,0.7,144.7,1,217"/>
	<path d="M202,353"/>
</g>
</svg>
